G04 EAGLE Gerber RS-274X export*
G75*
%MOMM*%
%FSLAX34Y34*%
%LPD*%
%INBottom Copper*%
%IPPOS*%
%AMOC8*
5,1,8,0,0,1.08239X$1,22.5*%
G01*
G04 Define Apertures*
%ADD10C,1.638300*%
%ADD11C,0.203200*%
%ADD12C,1.193800*%
D10*
X228092Y-19558D03*
X-153670Y318008D03*
D11*
X-120396Y351282D01*
X241300Y351282D01*
X252730Y339852D01*
X252730Y5080D01*
X228092Y-19558D01*
D10*
X-334010Y-85344D03*
X-128270Y318008D03*
X-77470Y320802D03*
X259080Y-19558D03*
D12*
X-128270Y122682D02*
X-329946Y-78994D01*
X-329946Y-81280D01*
X-334010Y-85344D01*
X-128270Y122682D02*
X-128270Y318008D01*
X-125476Y320802D02*
X-77470Y320802D01*
X-125476Y320802D02*
X-128270Y318008D01*
D10*
X362851Y56388D03*
D12*
X321564Y56388D01*
X259588Y-5588D01*
X259588Y-19050D01*
X259080Y-19558D01*
D10*
X-215900Y186944D03*
X-216154Y222250D03*
X-80518Y281178D03*
X173990Y338443D03*
D11*
X-23253Y338443D02*
X-80518Y281178D01*
X-23253Y338443D02*
X173990Y338443D01*
D10*
X-80518Y255778D03*
X173990Y211443D03*
D11*
X-5080Y180340D02*
X-80518Y255778D01*
X-5080Y180340D02*
X142887Y180340D01*
X173990Y211443D01*
D10*
X-80518Y230378D03*
X173990Y287643D03*
D11*
X97905Y287643D01*
X21844Y211582D01*
X-15494Y211582D01*
X-72644Y268732D01*
X-87122Y268732D01*
X-101346Y254508D01*
X-101346Y243840D01*
X-87884Y230378D01*
X-80518Y230378D01*
D10*
X-80518Y204978D03*
X-80518Y179578D03*
X173990Y186043D03*
D11*
X155079Y167132D02*
X-68072Y167132D01*
X-80518Y179578D01*
X155079Y167132D02*
X173990Y186043D01*
D10*
X-80518Y128778D03*
X69850Y-85852D03*
X173990Y567043D03*
X428244Y-5080D03*
X103886Y-86106D03*
X134874Y-86106D03*
D12*
X173990Y567043D02*
X381762Y567043D01*
X381762Y41402D01*
X428244Y-5080D01*
D10*
X-229616Y320802D03*
X-179070Y318008D03*
X427228Y567043D03*
X173990Y592443D03*
X427228Y592443D03*
X90932Y198628D03*
X290322Y-19812D03*
X-80518Y154178D03*
X69850Y87630D03*
X-77470Y597408D03*
X-4064Y389382D03*
X363867Y87884D03*
X427228Y59043D03*
X428244Y-55880D03*
X-334010Y87630D03*
X452374Y593090D03*
X452374Y567690D03*
X452374Y59690D03*
X14732Y198882D03*
X122936Y389382D03*
X90932Y224028D03*
X173990Y84443D03*
X173990Y59043D03*
X143002Y83935D03*
X143002Y58535D03*
X14732Y249682D03*
X173990Y236843D03*
D11*
X90424Y325374D02*
X14732Y249682D01*
X90424Y325374D02*
X196596Y325374D01*
X208788Y313182D01*
X208788Y262128D01*
X183503Y236843D01*
X173990Y236843D01*
D10*
X14732Y224282D03*
X173990Y313043D03*
D11*
X103493Y313043D02*
X14732Y224282D01*
X103493Y313043D02*
X173990Y313043D01*
D10*
X90932Y249428D03*
X173990Y262243D03*
D11*
X103747Y262243D02*
X90932Y249428D01*
X103747Y262243D02*
X173990Y262243D01*
D10*
X427228Y541643D03*
X452374Y542290D03*
X427228Y516243D03*
X452374Y516890D03*
X427228Y490843D03*
X452374Y491490D03*
X428244Y-30480D03*
D11*
X401574Y465189D02*
X427228Y490843D01*
X401574Y465189D02*
X401574Y49530D01*
X449834Y1270D01*
X449834Y-8890D01*
X428244Y-30480D01*
D10*
X427228Y465443D03*
X452374Y466090D03*
X427228Y440043D03*
X452374Y440690D03*
X427228Y414643D03*
X452374Y415290D03*
X427228Y389243D03*
X452374Y389890D03*
X427228Y363843D03*
X452374Y364490D03*
X427228Y338443D03*
X452374Y339090D03*
X427228Y313043D03*
X452374Y313690D03*
X427228Y287643D03*
X452374Y288290D03*
X427228Y262243D03*
X452374Y262890D03*
X427228Y236843D03*
X452374Y237490D03*
X427228Y211443D03*
X452374Y212090D03*
X427228Y186043D03*
X452374Y186690D03*
X427228Y160643D03*
X452374Y161290D03*
X427228Y135243D03*
X452374Y135890D03*
X427228Y109843D03*
X452374Y110490D03*
X427228Y84443D03*
X452374Y85090D03*
X173990Y135243D03*
X236867Y87884D03*
X235851Y56388D03*
X173990Y109843D03*
X173990Y160643D03*
X173990Y363843D03*
X173990Y541643D03*
X173990Y516243D03*
X21336Y389382D03*
D11*
X148197Y516243D02*
X173990Y516243D01*
X148197Y516243D02*
X21336Y389382D01*
D10*
X173990Y490843D03*
X46736Y389382D03*
D11*
X148197Y490843D01*
X173990Y490843D01*
D10*
X173990Y465443D03*
X72136Y389382D03*
D11*
X160667Y452120D02*
X173990Y465443D01*
X160667Y452120D02*
X122936Y452120D01*
X72136Y401320D01*
X72136Y389382D01*
D10*
X173990Y414643D03*
X173990Y440043D03*
X97536Y389382D03*
D11*
X112522Y404368D01*
X143764Y404368D01*
X173990Y434594D01*
X173990Y440043D01*
D10*
X173990Y389243D03*
X-229362Y597662D03*
M02*
