G04 EAGLE Gerber RS-274X export*
G75*
%MOMM*%
%FSLAX34Y34*%
%LPD*%
%INTop Copper*%
%IPPOS*%
%AMOC8*
5,1,8,0,0,1.08239X$1,22.5*%
G01*
G04 Define Apertures*
%ADD10C,1.638300*%
%ADD11C,1.193800*%
%ADD12C,0.203200*%
%ADD13C,0.152400*%
D10*
X228092Y-19558D03*
X-153670Y318008D03*
X-334010Y-85344D03*
X-128270Y318008D03*
X-77470Y320802D03*
X259080Y-19558D03*
D11*
X231902Y7620D01*
X164592Y7620D01*
X115824Y56388D01*
X115824Y314706D01*
X107696Y322834D01*
X-75438Y322834D01*
X-77470Y320802D01*
D10*
X362851Y56388D03*
X-215900Y186944D03*
X-216154Y222250D03*
X-80518Y281178D03*
X173990Y338443D03*
X-80518Y255778D03*
X173990Y211443D03*
X-80518Y230378D03*
X173990Y287643D03*
X-80518Y204978D03*
X-80518Y179578D03*
X173990Y186043D03*
X-80518Y128778D03*
X69850Y-85852D03*
X173990Y567043D03*
X428244Y-5080D03*
X103886Y-86106D03*
X134874Y-86106D03*
D11*
X-80518Y64516D02*
X-80518Y128778D01*
X-80518Y64516D02*
X69850Y-85852D01*
X70104Y-86106D02*
X103886Y-86106D01*
X70104Y-86106D02*
X69850Y-85852D01*
X103886Y-86106D02*
X134874Y-86106D01*
X428244Y-5080D02*
X440944Y-5080D01*
X452374Y-16510D01*
X452374Y-77216D01*
X443230Y-86360D01*
X135128Y-86360D01*
X134874Y-86106D01*
D10*
X-229616Y320802D03*
X-179070Y318008D03*
X427228Y567043D03*
X173990Y592443D03*
X427228Y592443D03*
X90932Y198628D03*
X290322Y-19812D03*
X-80518Y154178D03*
X69850Y87630D03*
X-77470Y597408D03*
X-4064Y389382D03*
X363867Y87884D03*
D11*
X427228Y567043D02*
X427228Y592443D01*
X173990Y592443D01*
X-72505Y592443D01*
X-77470Y597408D01*
X-4064Y389382D02*
X-178054Y389382D01*
X-179070Y388366D01*
X-179070Y318008D01*
X-178054Y389382D02*
X-178054Y496824D01*
X-77470Y597408D01*
X-179070Y318008D02*
X-179070Y189230D01*
X-144018Y154178D01*
X-80518Y154178D01*
X46482Y154178D01*
X90932Y198628D01*
X90932Y108712D01*
X69850Y87630D01*
X69850Y70612D02*
X181356Y-40894D01*
X69850Y70612D02*
X69850Y87630D01*
X181356Y-40894D02*
X309880Y-40894D01*
X310642Y-40132D02*
X290322Y-19812D01*
X310642Y-40132D02*
X309880Y-40894D01*
X310642Y-40132D02*
X324612Y-26162D01*
X324612Y48629D02*
X363867Y87884D01*
X324612Y48629D02*
X324612Y-26162D01*
D10*
X427228Y59043D03*
X428244Y-55880D03*
D11*
X392708Y59043D02*
X363867Y87884D01*
X392708Y59043D02*
X427228Y59043D01*
X392938Y58813D02*
X363867Y87884D01*
X392938Y58813D02*
X392938Y-38608D01*
X410210Y-55880D01*
X428244Y-55880D01*
X-179070Y318008D02*
X-226822Y318008D01*
X-229616Y320802D01*
D10*
X-334010Y87630D03*
D11*
X-210566Y87630D01*
X-144018Y154178D01*
D10*
X452374Y593090D03*
X452374Y567690D03*
X452374Y59690D03*
D11*
X427228Y592443D02*
X427875Y593090D01*
X452374Y593090D01*
X451727Y567043D02*
X427228Y567043D01*
X451727Y567043D02*
X452374Y567690D01*
X451727Y59043D02*
X427228Y59043D01*
X451727Y59043D02*
X452374Y59690D01*
D10*
X14732Y198882D03*
D11*
X14986Y198628D02*
X90932Y198628D01*
X14986Y198628D02*
X14732Y198882D01*
D10*
X122936Y389382D03*
X90932Y224028D03*
X173990Y84443D03*
X173990Y59043D03*
X143002Y83935D03*
X143002Y58535D03*
D11*
X173482Y83935D02*
X173990Y84443D01*
X173482Y83935D02*
X143002Y83935D01*
X143002Y58535D02*
X173482Y58535D01*
X173990Y59043D01*
X143002Y58535D02*
X143002Y83935D01*
X90932Y224028D02*
X13462Y301498D01*
X-100838Y301498D01*
X-101092Y301752D01*
X-101092Y345948D01*
X79248Y345948D01*
X122682Y389382D02*
X122936Y389382D01*
X122682Y389382D02*
X79248Y345948D01*
X122936Y389382D02*
X142748Y369570D01*
X142748Y84189D01*
X143002Y83935D01*
D10*
X14732Y249682D03*
X173990Y236843D03*
X14732Y224282D03*
X173990Y313043D03*
X90932Y249428D03*
X173990Y262243D03*
X427228Y541643D03*
X452374Y542290D03*
D12*
X451727Y541643D02*
X427228Y541643D01*
X451727Y541643D02*
X452374Y542290D01*
D10*
X427228Y516243D03*
X452374Y516890D03*
D12*
X451727Y516243D02*
X427228Y516243D01*
X451727Y516243D02*
X452374Y516890D01*
D10*
X427228Y490843D03*
X452374Y491490D03*
D12*
X451727Y490843D02*
X427228Y490843D01*
X451727Y490843D02*
X452374Y491490D01*
D10*
X428244Y-30480D03*
X427228Y465443D03*
X452374Y466090D03*
D12*
X451727Y465443D02*
X427228Y465443D01*
X451727Y465443D02*
X452374Y466090D01*
D10*
X427228Y440043D03*
X452374Y440690D03*
D12*
X451727Y440043D02*
X427228Y440043D01*
X451727Y440043D02*
X452374Y440690D01*
D10*
X427228Y414643D03*
X452374Y415290D03*
D12*
X451727Y414643D02*
X427228Y414643D01*
X451727Y414643D02*
X452374Y415290D01*
D10*
X427228Y389243D03*
X452374Y389890D03*
D12*
X451727Y389243D02*
X427228Y389243D01*
X451727Y389243D02*
X452374Y389890D01*
D10*
X427228Y363843D03*
X452374Y364490D03*
D12*
X451727Y363843D02*
X427228Y363843D01*
X451727Y363843D02*
X452374Y364490D01*
D10*
X427228Y338443D03*
X452374Y339090D03*
D12*
X451727Y338443D02*
X427228Y338443D01*
X451727Y338443D02*
X452374Y339090D01*
D10*
X427228Y313043D03*
X452374Y313690D03*
D12*
X451727Y313043D02*
X427228Y313043D01*
X451727Y313043D02*
X452374Y313690D01*
D10*
X427228Y287643D03*
X452374Y288290D03*
D12*
X451727Y287643D01*
X427228Y287643D01*
D10*
X427228Y262243D03*
X452374Y262890D03*
D12*
X451727Y262243D02*
X427228Y262243D01*
X451727Y262243D02*
X452374Y262890D01*
D10*
X427228Y236843D03*
X452374Y237490D03*
D12*
X427875Y237490D01*
X427228Y236843D01*
D10*
X427228Y211443D03*
X452374Y212090D03*
D12*
X451727Y211443D02*
X427228Y211443D01*
X451727Y211443D02*
X452374Y212090D01*
D10*
X427228Y186043D03*
X452374Y186690D03*
D12*
X451727Y186043D01*
X427228Y186043D01*
D10*
X427228Y160643D03*
X452374Y161290D03*
D12*
X451727Y160643D02*
X427228Y160643D01*
X451727Y160643D02*
X452374Y161290D01*
D10*
X427228Y135243D03*
X452374Y135890D03*
D12*
X427875Y135890D01*
X427228Y135243D01*
D10*
X427228Y109843D03*
X452374Y110490D03*
D12*
X451727Y109843D02*
X427228Y109843D01*
X451727Y109843D02*
X452374Y110490D01*
D10*
X427228Y84443D03*
X452374Y85090D03*
D12*
X451727Y84443D01*
X427228Y84443D01*
D10*
X173990Y135243D03*
D13*
X174105Y135128D01*
X207010Y135128D01*
X236867Y105271D01*
D10*
X236867Y87884D03*
D13*
X236867Y105271D01*
D10*
X235851Y56388D03*
D13*
X235851Y86868D01*
X236867Y87884D01*
D10*
X173990Y109843D03*
X173990Y160643D03*
X173990Y363843D03*
X173990Y541643D03*
X173990Y516243D03*
X21336Y389382D03*
X173990Y490843D03*
X46736Y389382D03*
X173990Y465443D03*
X72136Y389382D03*
X173990Y414643D03*
X173990Y440043D03*
X97536Y389382D03*
X173990Y389243D03*
X-229362Y597662D03*
M02*
