M48
;GenerationSoftware,Autodesk,EAGLE,9.7.0*%
;CreationDate,2026-07-04T21:23:32Z*%
FMAT,2
ICI,OFF
METRIC,TZ,000.000
T3C0.900
T2C1.092
T1C3.048
%
G90
M71
T1
X12014Y-3759
X-29058Y15875
X35916Y-1422
T2
X45237Y51689
X-15367Y31801
X25908Y-1956
X36285Y5639
X-21590Y18694
X-21615Y22225
X-8052Y28118
X17399Y33844
X-8052Y25578
X17399Y21144
X-8052Y23038
X17399Y28764
X-8052Y20498
X-8052Y17958
X17399Y18604
X-8052Y12878
X6985Y-8585
X17399Y56704
X42824Y-508
X10389Y-8611
X13487Y-8611
X-22962Y32080
X-17907Y31801
X42723Y56704
X17399Y59244
X42723Y59244
X9093Y19863
X29032Y-1981
X-8052Y15418
X6985Y8763
X-7747Y59741
X-406Y38938
X36387Y8788
X42723Y5904
X42824Y-5588
X-33401Y8763
X45237Y59309
X45237Y56769
X45237Y5969
X1473Y19888
X12294Y38938
X9093Y22403
X17399Y8444
X17399Y5904
X14300Y8393
X14300Y5853
X1473Y24968
X17399Y23684
X1473Y22428
X17399Y31304
X9093Y24943
X17399Y26224
X42723Y54164
X45237Y54229
X42723Y51624
X-12827Y31801
X42723Y49084
X45237Y49149
X42824Y-3048
X42723Y46544
X45237Y46609
X42723Y44004
X45237Y44069
X42723Y41464
X45237Y41529
X42723Y38924
X45237Y38989
X42723Y36384
X45237Y36449
X42723Y33844
X45237Y33909
X42723Y31304
X45237Y31369
X42723Y28764
X45237Y28829
X42723Y26224
X45237Y26289
X42723Y23684
X45237Y23749
X42723Y21144
X45237Y21209
X42723Y18604
X45237Y18669
X42723Y16064
X45237Y16129
X42723Y13524
X45237Y13589
X42723Y10984
X45237Y11049
X42723Y8444
X45237Y8509
X17399Y13524
X23687Y8788
X23585Y5639
X17399Y10984
X17399Y16064
X17399Y36384
X17399Y54164
X17399Y51624
X2134Y38938
X17399Y49084
X4674Y38938
X17399Y46544
X7214Y38938
X17399Y41464
X17399Y44004
X9754Y38938
X17399Y38924
X-22936Y59766
X22809Y-1956
X-33401Y-8534
X-7747Y32080
T3
X-38354Y33299
M30