G04 EAGLE Gerber RS-274X export*
G75*
%MOMM*%
%FSLAX34Y34*%
%LPD*%
%IN*%
%IPPOS*%
%AMOC8*
5,1,8,0,0,1.08239X$1,22.5*%
G01*
G04 Define Apertures*
%ADD10C,0.254000*%
D10*
X-349623Y-105460D02*
X469749Y-105460D01*
X469749Y611556D01*
X-243593Y611556D01*
X-243593Y332556D01*
X-349623Y148908D01*
X-349623Y-105460D01*
X-212354Y268916D02*
X-212354Y269880D01*
X-212423Y270842D01*
X-212560Y271796D01*
X-212765Y272738D01*
X-213037Y273664D01*
X-213374Y274567D01*
X-213774Y275444D01*
X-214236Y276291D01*
X-214758Y277102D01*
X-215335Y277874D01*
X-215967Y278603D01*
X-216649Y279285D01*
X-217378Y279916D01*
X-218150Y280494D01*
X-218961Y281015D01*
X-219807Y281477D01*
X-220684Y281878D01*
X-221588Y282215D01*
X-222513Y282487D01*
X-223455Y282692D01*
X-224410Y282829D01*
X-225372Y282898D01*
X-226336Y282898D01*
X-227298Y282829D01*
X-228252Y282692D01*
X-229195Y282487D01*
X-230120Y282215D01*
X-231023Y281878D01*
X-231901Y281477D01*
X-232747Y281015D01*
X-233558Y280494D01*
X-234330Y279916D01*
X-235059Y279285D01*
X-235741Y278603D01*
X-236372Y277874D01*
X-236950Y277102D01*
X-237471Y276291D01*
X-237934Y275444D01*
X-238334Y274567D01*
X-238671Y273664D01*
X-238943Y272738D01*
X-239148Y271796D01*
X-239285Y270842D01*
X-239354Y269880D01*
X-239354Y268916D01*
X-239285Y267954D01*
X-239148Y266999D01*
X-238943Y266057D01*
X-238671Y265132D01*
X-238334Y264228D01*
X-237934Y263351D01*
X-237471Y262505D01*
X-236950Y261693D01*
X-236372Y260921D01*
X-235741Y260193D01*
X-235059Y259511D01*
X-234330Y258879D01*
X-233558Y258301D01*
X-232747Y257780D01*
X-231901Y257318D01*
X-231023Y256917D01*
X-230120Y256580D01*
X-229195Y256309D01*
X-228252Y256104D01*
X-227298Y255966D01*
X-226336Y255898D01*
X-225372Y255898D01*
X-224410Y255966D01*
X-223455Y256104D01*
X-222513Y256309D01*
X-221588Y256580D01*
X-220684Y256917D01*
X-219807Y257318D01*
X-218961Y257780D01*
X-218150Y258301D01*
X-217378Y258879D01*
X-216649Y259511D01*
X-215967Y260193D01*
X-215335Y260921D01*
X-214758Y261693D01*
X-214236Y262505D01*
X-213774Y263351D01*
X-213374Y264228D01*
X-213037Y265132D01*
X-212765Y266057D01*
X-212560Y266999D01*
X-212423Y267954D01*
X-212354Y268916D01*
X-69593Y552345D02*
X-69593Y553268D01*
X-69666Y554189D01*
X-69810Y555101D01*
X-70026Y555998D01*
X-70311Y556876D01*
X-70664Y557729D01*
X-71083Y558552D01*
X-71566Y559339D01*
X-72109Y560086D01*
X-72708Y560788D01*
X-73361Y561441D01*
X-74063Y562041D01*
X-74810Y562584D01*
X-75597Y563066D01*
X-76420Y563485D01*
X-77273Y563839D01*
X-78151Y564124D01*
X-79049Y564340D01*
X-79961Y564484D01*
X-80881Y564556D01*
X-81805Y564556D01*
X-82725Y564484D01*
X-83637Y564340D01*
X-84535Y564124D01*
X-85413Y563839D01*
X-86266Y563485D01*
X-87089Y563066D01*
X-87876Y562584D01*
X-88623Y562041D01*
X-89325Y561441D01*
X-89978Y560788D01*
X-90578Y560086D01*
X-91120Y559339D01*
X-91603Y558552D01*
X-92022Y557729D01*
X-92375Y556876D01*
X-92661Y555998D01*
X-92876Y555101D01*
X-93021Y554189D01*
X-93093Y553268D01*
X-93093Y552345D01*
X-93021Y551424D01*
X-92876Y550512D01*
X-92661Y549615D01*
X-92375Y548736D01*
X-92022Y547883D01*
X-91603Y547061D01*
X-91120Y546273D01*
X-90578Y545526D01*
X-89978Y544824D01*
X-89325Y544171D01*
X-88623Y543572D01*
X-87876Y543029D01*
X-87089Y542547D01*
X-86266Y542128D01*
X-85413Y541774D01*
X-84535Y541489D01*
X-83637Y541273D01*
X-82725Y541129D01*
X-81805Y541056D01*
X-80881Y541056D01*
X-79961Y541129D01*
X-79049Y541273D01*
X-78151Y541489D01*
X-77273Y541774D01*
X-76420Y542128D01*
X-75597Y542547D01*
X-74810Y543029D01*
X-74063Y543572D01*
X-73361Y544171D01*
X-72708Y544824D01*
X-72109Y545526D01*
X-71566Y546273D01*
X-71083Y547061D01*
X-70664Y547883D01*
X-70311Y548736D01*
X-70026Y549615D01*
X-69810Y550512D01*
X-69666Y551424D01*
X-69593Y552345D01*
X35377Y79004D02*
X35377Y80076D01*
X35301Y81144D01*
X35148Y82205D01*
X34921Y83252D01*
X34619Y84280D01*
X34244Y85284D01*
X33799Y86258D01*
X33286Y87199D01*
X32706Y88100D01*
X32064Y88958D01*
X31363Y89768D01*
X30605Y90525D01*
X29795Y91227D01*
X28938Y91869D01*
X28036Y92448D01*
X27096Y92962D01*
X26121Y93407D01*
X25117Y93781D01*
X24089Y94083D01*
X23042Y94311D01*
X21982Y94463D01*
X20913Y94540D01*
X19842Y94540D01*
X18773Y94463D01*
X17712Y94311D01*
X16665Y94083D01*
X15637Y93781D01*
X14633Y93407D01*
X13659Y92962D01*
X12718Y92448D01*
X11817Y91869D01*
X10959Y91227D01*
X10150Y90525D01*
X9392Y89768D01*
X8690Y88958D01*
X8048Y88100D01*
X7469Y87199D01*
X6955Y86258D01*
X6510Y85284D01*
X6136Y84280D01*
X5834Y83252D01*
X5606Y82205D01*
X5454Y81144D01*
X5377Y80076D01*
X5377Y79004D01*
X5454Y77935D01*
X5606Y76875D01*
X5834Y75828D01*
X6136Y74800D01*
X6510Y73796D01*
X6955Y72821D01*
X7469Y71881D01*
X8048Y70980D01*
X8690Y70122D01*
X9392Y69312D01*
X10150Y68555D01*
X10959Y67853D01*
X11817Y67211D01*
X12718Y66631D01*
X13659Y66118D01*
X14633Y65673D01*
X15637Y65298D01*
X16665Y64997D01*
X17712Y64769D01*
X18773Y64616D01*
X19842Y64540D01*
X20913Y64540D01*
X21982Y64616D01*
X23042Y64769D01*
X24089Y64997D01*
X25117Y65298D01*
X26121Y65673D01*
X27096Y66118D01*
X28036Y66631D01*
X28938Y67211D01*
X29795Y67853D01*
X30605Y68555D01*
X31363Y69312D01*
X32064Y70122D01*
X32706Y70980D01*
X33286Y71881D01*
X33799Y72821D01*
X34244Y73796D01*
X34619Y74800D01*
X34921Y75828D01*
X35148Y76875D01*
X35301Y77935D01*
X35377Y79004D01*
X-269623Y-80996D02*
X-269623Y-79924D01*
X-269699Y-78856D01*
X-269852Y-77795D01*
X-270079Y-76748D01*
X-270381Y-75720D01*
X-270756Y-74716D01*
X-271201Y-73742D01*
X-271714Y-72801D01*
X-272294Y-71900D01*
X-272936Y-71042D01*
X-273637Y-70232D01*
X-274395Y-69475D01*
X-275205Y-68773D01*
X-276062Y-68131D01*
X-276964Y-67552D01*
X-277904Y-67038D01*
X-278879Y-66593D01*
X-279883Y-66219D01*
X-280911Y-65917D01*
X-281958Y-65689D01*
X-283018Y-65537D01*
X-284087Y-65460D01*
X-285158Y-65460D01*
X-286227Y-65537D01*
X-287288Y-65689D01*
X-288335Y-65917D01*
X-289363Y-66219D01*
X-290367Y-66593D01*
X-291341Y-67038D01*
X-292282Y-67552D01*
X-293183Y-68131D01*
X-294041Y-68773D01*
X-294850Y-69475D01*
X-295608Y-70232D01*
X-296310Y-71042D01*
X-296952Y-71900D01*
X-297531Y-72801D01*
X-298045Y-73742D01*
X-298490Y-74716D01*
X-298864Y-75720D01*
X-299166Y-76748D01*
X-299394Y-77795D01*
X-299546Y-78856D01*
X-299623Y-79924D01*
X-299623Y-80996D01*
X-299546Y-82065D01*
X-299394Y-83125D01*
X-299166Y-84172D01*
X-298864Y-85200D01*
X-298490Y-86204D01*
X-298045Y-87179D01*
X-297531Y-88119D01*
X-296952Y-89020D01*
X-296310Y-89878D01*
X-295608Y-90688D01*
X-294850Y-91446D01*
X-294041Y-92147D01*
X-293183Y-92789D01*
X-292282Y-93369D01*
X-291341Y-93882D01*
X-290367Y-94327D01*
X-289363Y-94702D01*
X-288335Y-95003D01*
X-287288Y-95231D01*
X-286227Y-95384D01*
X-285158Y-95460D01*
X-284087Y-95460D01*
X-283018Y-95384D01*
X-281958Y-95231D01*
X-280911Y-95003D01*
X-279883Y-94702D01*
X-278879Y-94327D01*
X-277904Y-93882D01*
X-276964Y-93369D01*
X-276062Y-92789D01*
X-275205Y-92147D01*
X-274395Y-91446D01*
X-273637Y-90688D01*
X-272936Y-89878D01*
X-272294Y-89020D01*
X-271714Y-88119D01*
X-271201Y-87179D01*
X-270756Y-86204D01*
X-270381Y-85200D01*
X-270079Y-84172D01*
X-269852Y-83125D01*
X-269699Y-82065D01*
X-269623Y-80996D01*
X-212354Y138916D02*
X-212354Y139880D01*
X-212423Y140842D01*
X-212560Y141796D01*
X-212765Y142738D01*
X-213037Y143664D01*
X-213374Y144567D01*
X-213774Y145444D01*
X-214236Y146291D01*
X-214758Y147102D01*
X-215335Y147874D01*
X-215967Y148603D01*
X-216649Y149285D01*
X-217378Y149916D01*
X-218150Y150494D01*
X-218961Y151015D01*
X-219807Y151477D01*
X-220684Y151878D01*
X-221588Y152215D01*
X-222513Y152487D01*
X-223455Y152692D01*
X-224410Y152829D01*
X-225372Y152898D01*
X-226336Y152898D01*
X-227298Y152829D01*
X-228252Y152692D01*
X-229195Y152487D01*
X-230120Y152215D01*
X-231023Y151878D01*
X-231901Y151477D01*
X-232747Y151015D01*
X-233558Y150494D01*
X-234330Y149916D01*
X-235059Y149285D01*
X-235741Y148603D01*
X-236372Y147874D01*
X-236950Y147102D01*
X-237471Y146291D01*
X-237934Y145444D01*
X-238334Y144567D01*
X-238671Y143664D01*
X-238943Y142738D01*
X-239148Y141796D01*
X-239285Y140842D01*
X-239354Y139880D01*
X-239354Y138916D01*
X-239285Y137954D01*
X-239148Y136999D01*
X-238943Y136057D01*
X-238671Y135132D01*
X-238334Y134228D01*
X-237934Y133351D01*
X-237471Y132505D01*
X-236950Y131693D01*
X-236372Y130921D01*
X-235741Y130193D01*
X-235059Y129511D01*
X-234330Y128879D01*
X-233558Y128301D01*
X-232747Y127780D01*
X-231901Y127318D01*
X-231023Y126917D01*
X-230120Y126580D01*
X-229195Y126309D01*
X-228252Y126104D01*
X-227298Y125966D01*
X-226336Y125898D01*
X-225372Y125898D01*
X-224410Y125966D01*
X-223455Y126104D01*
X-222513Y126309D01*
X-221588Y126580D01*
X-220684Y126917D01*
X-219807Y127318D01*
X-218961Y127780D01*
X-218150Y128301D01*
X-217378Y128879D01*
X-216649Y129511D01*
X-215967Y130193D01*
X-215335Y130921D01*
X-214758Y131693D01*
X-214236Y132505D01*
X-213774Y133351D01*
X-213374Y134228D01*
X-213037Y135132D01*
X-212765Y136057D01*
X-212560Y136999D01*
X-212423Y137954D01*
X-212354Y138916D01*
X-2662Y428134D02*
X-2662Y428979D01*
X-2728Y429821D01*
X-2861Y430655D01*
X-3058Y431477D01*
X-3319Y432280D01*
X-3642Y433060D01*
X-4026Y433813D01*
X-4467Y434533D01*
X-4964Y435217D01*
X-5512Y435859D01*
X-6109Y436456D01*
X-6752Y437005D01*
X-7435Y437502D01*
X-8155Y437943D01*
X-8908Y438326D01*
X-9689Y438650D01*
X-10492Y438911D01*
X-11313Y439108D01*
X-12148Y439240D01*
X-12990Y439306D01*
X-13835Y439306D01*
X-14677Y439240D01*
X-15511Y439108D01*
X-16332Y438911D01*
X-17136Y438650D01*
X-17916Y438326D01*
X-18669Y437943D01*
X-19389Y437502D01*
X-20073Y437005D01*
X-20715Y436456D01*
X-21312Y435859D01*
X-21861Y435217D01*
X-22357Y434533D01*
X-22799Y433813D01*
X-23182Y433060D01*
X-23506Y432280D01*
X-23767Y431477D01*
X-23964Y430655D01*
X-24096Y429821D01*
X-24162Y428979D01*
X-24162Y428134D01*
X-24096Y427292D01*
X-23964Y426458D01*
X-23767Y425636D01*
X-23506Y424833D01*
X-23182Y424052D01*
X-22799Y423300D01*
X-22357Y422579D01*
X-21861Y421896D01*
X-21312Y421254D01*
X-20715Y420656D01*
X-20073Y420108D01*
X-19389Y419611D01*
X-18669Y419170D01*
X-17916Y418786D01*
X-17136Y418463D01*
X-16332Y418202D01*
X-15511Y418005D01*
X-14677Y417873D01*
X-13835Y417806D01*
X-12990Y417806D01*
X-12148Y417873D01*
X-11313Y418005D01*
X-10492Y418202D01*
X-9689Y418463D01*
X-8908Y418786D01*
X-8155Y419170D01*
X-7435Y419611D01*
X-6752Y420108D01*
X-6109Y420656D01*
X-5512Y421254D01*
X-4964Y421896D01*
X-4467Y422579D01*
X-4026Y423300D01*
X-3642Y424052D01*
X-3319Y424833D01*
X-3058Y425636D01*
X-2861Y426458D01*
X-2728Y427292D01*
X-2662Y428134D01*
X-214093Y552345D02*
X-214093Y553268D01*
X-214166Y554189D01*
X-214310Y555101D01*
X-214526Y555998D01*
X-214811Y556876D01*
X-215164Y557729D01*
X-215583Y558552D01*
X-216066Y559339D01*
X-216609Y560086D01*
X-217208Y560788D01*
X-217861Y561441D01*
X-218563Y562041D01*
X-219310Y562584D01*
X-220097Y563066D01*
X-220920Y563485D01*
X-221773Y563839D01*
X-222651Y564124D01*
X-223549Y564340D01*
X-224461Y564484D01*
X-225381Y564556D01*
X-226305Y564556D01*
X-227225Y564484D01*
X-228137Y564340D01*
X-229035Y564124D01*
X-229913Y563839D01*
X-230766Y563485D01*
X-231589Y563066D01*
X-232376Y562584D01*
X-233123Y562041D01*
X-233825Y561441D01*
X-234478Y560788D01*
X-235078Y560086D01*
X-235620Y559339D01*
X-236103Y558552D01*
X-236522Y557729D01*
X-236875Y556876D01*
X-237161Y555998D01*
X-237376Y555101D01*
X-237521Y554189D01*
X-237593Y553268D01*
X-237593Y552345D01*
X-237521Y551424D01*
X-237376Y550512D01*
X-237161Y549615D01*
X-236875Y548736D01*
X-236522Y547883D01*
X-236103Y547061D01*
X-235620Y546273D01*
X-235078Y545526D01*
X-234478Y544824D01*
X-233825Y544171D01*
X-233123Y543572D01*
X-232376Y543029D01*
X-231589Y542547D01*
X-230766Y542128D01*
X-229913Y541774D01*
X-229035Y541489D01*
X-228137Y541273D01*
X-227225Y541129D01*
X-226305Y541056D01*
X-225381Y541056D01*
X-224461Y541129D01*
X-223549Y541273D01*
X-222651Y541489D01*
X-221773Y541774D01*
X-220920Y542128D01*
X-220097Y542547D01*
X-219310Y543029D01*
X-218563Y543572D01*
X-217861Y544171D01*
X-217208Y544824D01*
X-216609Y545526D01*
X-216066Y546273D01*
X-215583Y547061D01*
X-215164Y547883D01*
X-214811Y548736D01*
X-214526Y549615D01*
X-214310Y550512D01*
X-214166Y551424D01*
X-214093Y552345D01*
X142838Y428134D02*
X142838Y428979D01*
X142772Y429821D01*
X142639Y430655D01*
X142442Y431477D01*
X142181Y432280D01*
X141858Y433060D01*
X141474Y433813D01*
X141033Y434533D01*
X140536Y435217D01*
X139988Y435859D01*
X139391Y436456D01*
X138748Y437005D01*
X138065Y437502D01*
X137345Y437943D01*
X136592Y438326D01*
X135811Y438650D01*
X135008Y438911D01*
X134187Y439108D01*
X133352Y439240D01*
X132510Y439306D01*
X131665Y439306D01*
X130823Y439240D01*
X129989Y439108D01*
X129168Y438911D01*
X128364Y438650D01*
X127584Y438326D01*
X126831Y437943D01*
X126111Y437502D01*
X125427Y437005D01*
X124785Y436456D01*
X124188Y435859D01*
X123639Y435217D01*
X123143Y434533D01*
X122701Y433813D01*
X122318Y433060D01*
X121994Y432280D01*
X121733Y431477D01*
X121536Y430655D01*
X121404Y429821D01*
X121338Y428979D01*
X121338Y428134D01*
X121404Y427292D01*
X121536Y426458D01*
X121733Y425636D01*
X121994Y424833D01*
X122318Y424052D01*
X122701Y423300D01*
X123143Y422579D01*
X123639Y421896D01*
X124188Y421254D01*
X124785Y420656D01*
X125427Y420108D01*
X126111Y419611D01*
X126831Y419170D01*
X127584Y418786D01*
X128364Y418463D01*
X129168Y418202D01*
X129989Y418005D01*
X130823Y417873D01*
X131665Y417806D01*
X132510Y417806D01*
X133352Y417873D01*
X134187Y418005D01*
X135008Y418202D01*
X135811Y418463D01*
X136592Y418786D01*
X137345Y419170D01*
X138065Y419611D01*
X138748Y420108D01*
X139391Y420656D01*
X139988Y421254D01*
X140536Y421896D01*
X141033Y422579D01*
X141474Y423300D01*
X141858Y424052D01*
X142181Y424833D01*
X142442Y425636D01*
X142639Y426458D01*
X142772Y427292D01*
X142838Y428134D01*
M02*
