G04 EAGLE Gerber RS-274X export*
G75*
%MOMM*%
%FSLAX34Y34*%
%LPD*%
%INSoldermask Top*%
%IPPOS*%
%AMOC8*
5,1,8,0,0,1.08239X$1,22.5*%
G01*
G04 Define Apertures*
%ADD10C,1.103200*%
%ADD11C,3.251200*%
%ADD12C,1.841500*%
D10*
X-383540Y332994D03*
D11*
X359156Y-14224D03*
X-290576Y158750D03*
X120142Y-37592D03*
D12*
X228092Y-19558D03*
X-153670Y318008D03*
X-334010Y-85344D03*
X-128270Y318008D03*
X-77470Y320802D03*
X259080Y-19558D03*
X362851Y56388D03*
X-215900Y186944D03*
X-216154Y222250D03*
X-80518Y281178D03*
X173990Y338443D03*
X-80518Y255778D03*
X173990Y211443D03*
X-80518Y230378D03*
X173990Y287643D03*
X-80518Y204978D03*
X-80518Y179578D03*
X173990Y186043D03*
X-80518Y128778D03*
X69850Y-85852D03*
X173990Y567043D03*
X428244Y-5080D03*
X103886Y-86106D03*
X134874Y-86106D03*
X-229616Y320802D03*
X-179070Y318008D03*
X427228Y567043D03*
X173990Y592443D03*
X427228Y592443D03*
X90932Y198628D03*
X290322Y-19812D03*
X-80518Y154178D03*
X69850Y87630D03*
X-77470Y597408D03*
X-4064Y389382D03*
X363867Y87884D03*
X427228Y59043D03*
X428244Y-55880D03*
X-334010Y87630D03*
X452374Y593090D03*
X452374Y567690D03*
X452374Y59690D03*
X14732Y198882D03*
X122936Y389382D03*
X90932Y224028D03*
X173990Y84443D03*
X173990Y59043D03*
X143002Y83935D03*
X143002Y58535D03*
X14732Y249682D03*
X173990Y236843D03*
X14732Y224282D03*
X173990Y313043D03*
X90932Y249428D03*
X173990Y262243D03*
X427228Y541643D03*
X452374Y542290D03*
X427228Y516243D03*
X452374Y516890D03*
X427228Y490843D03*
X452374Y491490D03*
X428244Y-30480D03*
X427228Y465443D03*
X452374Y466090D03*
X427228Y440043D03*
X452374Y440690D03*
X427228Y414643D03*
X452374Y415290D03*
X427228Y389243D03*
X452374Y389890D03*
X427228Y363843D03*
X452374Y364490D03*
X427228Y338443D03*
X452374Y339090D03*
X427228Y313043D03*
X452374Y313690D03*
X427228Y287643D03*
X452374Y288290D03*
X427228Y262243D03*
X452374Y262890D03*
X427228Y236843D03*
X452374Y237490D03*
X427228Y211443D03*
X452374Y212090D03*
X427228Y186043D03*
X452374Y186690D03*
X427228Y160643D03*
X452374Y161290D03*
X427228Y135243D03*
X452374Y135890D03*
X427228Y109843D03*
X452374Y110490D03*
X427228Y84443D03*
X452374Y85090D03*
X173990Y135243D03*
X236867Y87884D03*
X235851Y56388D03*
X173990Y109843D03*
X173990Y160643D03*
X173990Y363843D03*
X173990Y541643D03*
X173990Y516243D03*
X21336Y389382D03*
X173990Y490843D03*
X46736Y389382D03*
X173990Y465443D03*
X72136Y389382D03*
X173990Y414643D03*
X173990Y440043D03*
X97536Y389382D03*
X173990Y389243D03*
X-229362Y597662D03*
M02*
